<?xml version="1.0" encoding="UTF-8" standalone="no"?>
<!-- Created with Inkscape (http://www.inkscape.org/) -->

<svg
   width="264.58334mm"
   height="247.13229mm"
   viewBox="0 0 264.58334 247.13229"
   version="1.1"
   id="svg1"
   xmlns="http://www.w3.org/2000/svg"
   xmlns:svg="http://www.w3.org/2000/svg">
  <defs
     id="defs1" />
  <g
     id="layer1"
     transform="translate(-61.385713,13.176316)">
    <g
       id="g1">
      <path
         id="path1"
         d="M 0,0 C -26.625,0 -48.288,-21.66 -48.288,-48.287 V -234.28 l 40.705,27.412 h 264.659 c 26.627,0 48.29,21.663 48.29,48.289 V 0 Z m -71.807,-278.475 v 230.188 c 0,39.594 32.212,71.809 71.807,71.809 h 328.885 v -182.101 c 0,-39.593 -32.215,-71.808 -71.809,-71.808 H -0.4 Z"
         style="fill:#236093;fill-opacity:1;fill-rule:nonzero;stroke:none"
         transform="matrix(0.5879453,0,0,-0.5879453,118.10408,0.65333292)"
         clip-path="none" />
      <path
         id="path3"
         d="m 0,0 h -23.594 v 48.558 c 0,16.067 -4.616,20.856 -14.363,20.856 -9.746,0 -14.535,-4.789 -14.535,-20.347 V 0 h -23.594 v 48.558 c 0,16.067 -4.616,20.856 -14.357,20.856 -9.747,0 -14.536,-4.789 -14.536,-20.347 V 0 h -23.594 v 89.761 h 23.594 v -5.985 c 4.102,4.275 10.26,7.863 19.66,7.863 11.457,0 18.124,-3.247 24.791,-11.456 6.158,6.326 13.68,11.456 28.557,11.456 C -9.064,91.639 0,75.913 0,50.609 Z"
         style="fill:#236093;fill-opacity:1;fill-rule:nonzero;stroke:none"
         transform="matrix(0.5879453,0,0,-0.5879453,177.82281,87.710752)"
         clip-path="none" />
      <path
         id="path5"
         d="m 0,0 c -7.354,0 -11.115,-3.079 -14.535,-7.522 v -33.855 c 3.593,-4.957 9.064,-7.69 15.899,-7.69 9.064,0 14.021,7.863 14.021,22.908 C 15.385,-7.695 9.232,0 0,0 m 4.443,-71.297 c -7.863,0 -14.703,3.079 -18.978,7.013 V -90.616 L -38.13,-102.414 V 20.347 h 23.595 v -5.644 c 4.443,3.934 10.428,7.522 18.978,7.522 19.146,0 34.877,-14.362 34.877,-47.87 0,-26.842 -12.652,-45.652 -34.877,-45.652"
         style="fill:#236093;fill-opacity:1;fill-rule:nonzero;stroke:none"
         transform="matrix(0.5879453,0,0,-0.5879453,210.19337,46.899058)"
         clip-path="none" />
      <path
         id="path7"
         d="m 0,0 c -7.349,0 -11.11,-3.079 -14.53,-7.522 v -33.855 c 3.588,-4.957 9.059,-7.69 15.899,-7.69 9.064,0 14.021,7.863 14.021,22.908 C 15.39,-7.695 9.232,0 0,0 m 4.448,-71.297 c -7.868,0 -14.703,3.079 -18.978,7.013 v -5.13 H -38.125 V 43.428 L -14.53,55.225 V 14.703 c 4.443,3.934 10.428,7.522 18.978,7.522 19.146,0 34.878,-14.362 34.878,-47.87 0,-26.842 -12.652,-45.652 -34.878,-45.652"
         style="fill:#236093;fill-opacity:1;fill-rule:nonzero;stroke:none"
         transform="matrix(0.5879453,0,0,-0.5879453,263.6683,46.899058)"
         clip-path="none" />
    </g>
    <g
       id="g2">
      <path
         id="path9"
         d="m 0,0 h -6.137 v -6.861 h 6.21 c 2.482,0 3.814,1.143 3.814,3.467 C 3.887,-1.07 2.36,0 0,0 m -0.268,-12.044 h -5.869 v -9.452 h -5.335 V 5.183 H 0.189 c 5.03,0 9.185,-2.781 9.185,-8.461 0,-6.174 -4.113,-8.766 -9.642,-8.766"
         style="fill:#236093;fill-opacity:1;fill-rule:nonzero;stroke:none"
         transform="matrix(0.5879453,0,0,-0.5879453,68.642364,221.07063)"
         clip-path="none" />
      <path
         id="path11"
         d="m 0,0 c 0,-7.737 -4.039,-12.196 -10.822,-12.196 -6.441,0 -10.784,4.343 -10.784,12.123 v 14.976 h 5.334 V 0 c 0,-4.27 2.057,-6.977 5.45,-6.977 3.389,0 5.487,2.634 5.487,6.904 V 14.903 H 0 Z"
         style="fill:#236093;fill-opacity:1;fill-rule:nonzero;stroke:none"
         transform="matrix(0.5879453,0,0,-0.5879453,89.577103,226.78539)"
         clip-path="none" />
      <path
         id="path13"
         d="M 0,0 H -7.092 V -6.898 H 0 c 2.591,0 3.808,1.374 3.808,3.467 C 3.808,-1.144 2.591,0 0,0 M -0.304,9.799 H -7.092 V 4.726 h 7.05 c 2.214,0 3.011,1.034 3.011,2.518 0,1.679 -0.949,2.555 -3.273,2.555 m 0.11,-21.764 h -12.117 v 26.679 h 12.232 c 5.183,0 8.461,-2.476 8.461,-7.05 C 8.382,5.377 7.318,3.546 5.56,2.481 7.695,1.526 9.3,-0.42 9.3,-3.352 c 0,-5.602 -3.776,-8.613 -9.494,-8.613"
         style="fill:#236093;fill-opacity:1;fill-rule:nonzero;stroke:none"
         transform="matrix(0.5879453,0,0,-0.5879453,100.58732,226.67439)"
         clip-path="none" />
      <path
         id="path15"
         d="m 0,0 h -18.711 v 26.679 h 5.335 V 5.261 H 0 Z"
         style="fill:#236093;fill-opacity:1;fill-rule:nonzero;stroke:none"
         transform="matrix(0.5879453,0,0,-0.5879453,120.11262,233.70915)"
         clip-path="none" />
      <path
         id="path17"
         d="m 496.154,230.551 h -5.335 v 26.679 h 5.335 z"
         style="fill:#236093;fill-opacity:1;fill-rule:nonzero;stroke:none"
         transform="matrix(0.5879453,0,0,-0.5879453,-165.4954,369.2606)"
         clip-path="none" />
      <path
         id="path19"
         d="m 0,0 c 0,8.12 4.878,13.759 11.855,13.759 5.03,0 8.078,-2.439 9.757,-5.906 L 16.655,5.566 C 15.705,7.396 14.179,8.461 11.776,8.461 7.774,8.461 5.487,4.952 5.487,0 c 0,-4.805 2.329,-8.461 6.326,-8.461 2.402,0 3.813,1.028 5.224,3.394 l 4.496,-2.67 c -1.831,-3.772 -5.031,-6.022 -9.872,-6.022 C 4.689,-13.759 0,-8.424 0,0"
         style="fill:#236093;fill-opacity:1;fill-rule:nonzero;stroke:none"
         transform="matrix(0.5879453,0,0,-0.5879453,129.50059,225.86638)"
         clip-path="none" />
      <path
         id="path21"
         d="M 0,0 H -7.092 V -6.898 H 0 c 2.591,0 3.808,1.374 3.808,3.467 C 3.808,-1.144 2.591,0 0,0 M -0.304,9.799 H -7.092 V 4.726 h 7.05 c 2.214,0 3.011,1.034 3.011,2.518 0,1.679 -0.949,2.555 -3.273,2.555 m 0.11,-21.764 h -12.117 v 26.679 h 12.232 c 5.183,0 8.461,-2.476 8.461,-7.05 C 8.382,5.377 7.318,3.546 5.565,2.481 7.695,1.526 9.3,-0.42 9.3,-3.352 c 0,-5.602 -3.777,-8.613 -9.494,-8.613"
         style="fill:#236093;fill-opacity:1;fill-rule:nonzero;stroke:none"
         transform="matrix(0.5879453,0,0,-0.5879453,158.78708,226.67439)"
         clip-path="none" />
      <path
         id="path23"
         d="M 0,0 H -6.977 V -6.861 H 0 c 2.476,0 3.808,1.143 3.808,3.467 C 3.808,-0.991 2.36,0 0,0 M 9.3,-21.496 H 3.163 l -4.763,9.604 h -5.377 v -9.604 h -5.334 V 5.183 H 0.115 c 5.031,0 9.185,-2.781 9.185,-8.461 0,-4.003 -1.715,-6.515 -5.109,-7.853 z"
         style="fill:#236093;fill-opacity:1;fill-rule:nonzero;stroke:none"
         transform="matrix(0.5879453,0,0,-0.5879453,174.54977,221.07063)"
         clip-path="none" />
      <path
         id="path25"
         d="m 0,0 c -3.735,0 -6.211,-3.011 -6.211,-8.424 0,-5.408 2.592,-8.498 6.326,-8.498 3.735,0 6.211,3.011 6.211,8.424 C 6.326,-3.09 3.735,0 0,0 m 0.037,-22.22 c -6.972,0 -11.735,5.109 -11.735,13.722 0,8.613 4.837,13.796 11.813,13.796 6.935,0 11.698,-5.109 11.698,-13.722 0,-8.613 -4.836,-13.796 -11.776,-13.796"
         style="fill:#236093;fill-opacity:1;fill-rule:nonzero;stroke:none"
         transform="matrix(0.5879453,0,0,-0.5879453,189.16527,220.89172)"
         clip-path="none" />
      <path
         id="path27"
         d="M 0,0 -1.715,4.842 C -2.245,6.4 -2.78,8.005 -3.048,8.991 -3.315,8.005 -3.845,6.4 -4.38,4.842 L -6.095,0 Z m 9.799,-11.016 h -5.87 l -2.098,5.944 h -9.757 l -2.098,-5.944 h -5.713 l 10.213,26.679 h 5.183 z"
         style="fill:#236093;fill-opacity:1;fill-rule:nonzero;stroke:none"
         transform="matrix(0.5879453,0,0,-0.5879453,206.69521,227.23259)"
         clip-path="none" />
      <path
         id="path29"
         d="m 0,0 h -2.822 v -16.314 h 2.628 c 5.602,0 8.157,3.279 8.157,8.157 C 7.963,-2.707 5.639,0 0,0 M -0.194,-21.496 H -8.157 V 5.183 h 8.346 c 7.622,0 13.266,-3.583 13.266,-13.34 0,-9.374 -6.788,-13.339 -13.649,-13.339"
         style="fill:#236093;fill-opacity:1;fill-rule:nonzero;stroke:none"
         transform="matrix(0.5879453,0,0,-0.5879453,220.01229,221.07063)"
         clip-path="none" />
      <path
         id="path31"
         d="m 0,0 c 0,8.12 4.878,13.759 11.855,13.759 5.03,0 8.078,-2.439 9.757,-5.906 L 16.655,5.566 C 15.705,7.396 14.179,8.461 11.776,8.461 7.774,8.461 5.487,4.952 5.487,0 c 0,-4.805 2.329,-8.461 6.326,-8.461 2.402,0 3.813,1.028 5.224,3.394 l 4.496,-2.67 c -1.831,-3.772 -5.031,-6.022 -9.872,-6.022 C 4.69,-13.759 0,-8.424 0,0"
         style="fill:#236093;fill-opacity:1;fill-rule:nonzero;stroke:none"
         transform="matrix(0.5879453,0,0,-0.5879453,230.07874,225.86638)"
         clip-path="none" />
      <path
         id="path33"
         d="M 0,0 -1.715,4.842 C -2.245,6.4 -2.78,8.005 -3.048,8.991 -3.315,8.005 -3.845,6.4 -4.38,4.842 L -6.095,0 Z m 9.799,-11.016 h -5.87 l -2.098,5.944 h -9.757 l -2.098,-5.944 h -5.713 l 10.213,26.679 h 5.183 z"
         style="fill:#236093;fill-opacity:1;fill-rule:nonzero;stroke:none"
         transform="matrix(0.5879453,0,0,-0.5879453,253.52395,227.23259)"
         clip-path="none" />
      <path
         id="path35"
         d="m 0,0 c -4.459,0 -8.346,1.867 -10.365,4.842 l 3.85,3.43 c 1.867,-2.171 4.265,-3.053 6.819,-3.053 3.163,0 4.653,0.882 4.653,2.901 0,1.715 -0.918,2.476 -5.948,3.619 -4.915,1.144 -8.346,2.707 -8.346,7.963 0,4.842 4.27,7.816 9.526,7.816 4.154,0 7.207,-1.563 9.72,-4.191 L 6.059,19.592 C 4.343,21.344 2.439,22.335 0,22.335 c -2.859,0 -3.808,-1.222 -3.808,-2.402 0,-1.679 1.143,-2.208 5.371,-3.2 4.233,-0.991 8.918,-2.439 8.918,-8.235 C 10.481,3.431 7.281,0 0,0"
         style="fill:#236093;fill-opacity:1;fill-rule:nonzero;stroke:none"
         transform="matrix(0.5879453,0,0,-0.5879453,266.81944,233.95591)"
         clip-path="none" />
      <path
         id="path37"
         d="m 0,0 h -7.658 v -21.417 h -5.34 V 0 h -7.659 V 5.261 H 0 Z"
         style="fill:#236093;fill-opacity:1;fill-rule:nonzero;stroke:none"
         transform="matrix(0.5879453,0,0,-0.5879453,286.70244,221.11689)"
         clip-path="none" />
      <path
         id="path39"
         d="m 779.727,230.551 h -5.335 v 26.679 h 5.335 z"
         style="fill:#236093;fill-opacity:1;fill-rule:nonzero;stroke:none"
         transform="matrix(0.5879453,0,0,-0.5879453,-165.4954,369.2606)"
         clip-path="none" />
      <path
         id="path41"
         d="m 0,0 h -4.768 l -9.794,14.556 c -0.645,0.992 -1.526,2.329 -1.867,3.011 0,-0.986 0.079,-4.343 0.079,-5.828 V 0 h -5.262 v 26.679 h 5.11 l 9.447,-14.1 c 0.65,-0.992 1.526,-2.329 1.867,-3.011 0,0.991 -0.073,4.343 -0.073,5.828 V 26.679 H 0 Z"
         style="fill:#236093;fill-opacity:1;fill-rule:nonzero;stroke:none"
         transform="matrix(0.5879453,0,0,-0.5879453,309.76222,233.70915)"
         clip-path="none" />
      <path
         id="path43"
         d="m 0,0 c 0,-6.861 -4.537,-10.748 -10.711,-10.748 -6.972,0 -11.661,5.335 -11.661,13.759 0,8.12 4.878,13.759 11.855,13.759 5.45,0 8.345,-2.555 10.097,-6.672 L -5.487,8.005 c -0.991,1.982 -2.213,3.467 -5.109,3.467 -4.002,0 -6.289,-3.509 -6.289,-8.461 0,-4.915 2.329,-8.54 6.326,-8.54 3.661,0 4.92,1.715 5.224,4.045 H -9.568 V 3.504 H 0 Z"
         style="fill:#236093;fill-opacity:1;fill-rule:nonzero;stroke:none"
         transform="matrix(0.5879453,0,0,-0.5879453,325.96905,227.63662)"
         clip-path="none" />
      <path
         id="path45"
         d="m 0,0 h -10.706 v 19.655 c 0,2.906 0.157,9.709 0.157,11.776 -0.766,-1.988 -2.371,-5.812 -3.75,-8.87 L -25.158,-1.222 -36.016,22.561 c -1.374,3.058 -2.979,6.882 -3.745,8.87 0,-2.067 0.152,-8.87 0.152,-11.776 V 0 h -10.475 v 53.531 h 10.323 l 11.162,-24.245 c 1.38,-2.98 2.985,-7.034 3.672,-8.944 0.687,1.988 2.219,5.886 3.593,8.944 l 10.785,24.245 H 0 Z"
         style="fill:#236093;fill-opacity:1;fill-rule:nonzero;stroke:none"
         transform="matrix(0.5879453,0,0,-0.5879453,90.832365,212.54618)"
         clip-path="none" />
      <path
         id="path47"
         d="m 460.437,266.546 h -10.701 v 53.531 h 10.701 z"
         style="fill:#236093;fill-opacity:1;fill-rule:nonzero;stroke:none"
         transform="matrix(0.5879453,0,0,-0.5879453,-165.4954,369.2606)"
         clip-path="none" />
      <path
         id="path49"
         d="m 0,0 c -8.949,0 -16.749,3.745 -20.799,9.709 l 7.722,6.883 c 3.745,-4.359 8.566,-6.117 13.685,-6.117 6.348,0 9.332,1.758 9.332,5.812 0,3.441 -1.836,4.968 -11.928,7.265 -9.867,2.293 -16.749,5.43 -16.749,15.984 0,9.709 8.566,15.673 19.12,15.673 8.335,0 14.451,-3.137 19.498,-8.414 l -7.722,-7.49 C 8.718,42.819 4.894,44.807 0,44.807 c -5.739,0 -7.648,-2.444 -7.648,-4.815 0,-3.362 2.292,-4.438 10.785,-6.426 C 11.624,31.578 21.029,28.672 21.029,17.053 21.029,6.882 14.604,0 0,0"
         style="fill:#236093;fill-opacity:1;fill-rule:nonzero;stroke:none"
         transform="matrix(0.5879453,0,0,-0.5879453,124.01094,213.03964)"
         clip-path="none" />
      <path
         id="path51"
         d="m 0,0 c -8.944,0 -16.744,3.745 -20.798,9.709 l 7.721,6.883 c 3.75,-4.359 8.566,-6.117 13.691,-6.117 6.347,0 9.326,1.758 9.326,5.812 0,3.441 -1.83,4.968 -11.928,7.265 -9.862,2.293 -16.744,5.43 -16.744,15.984 0,9.709 8.561,15.673 19.115,15.673 8.335,0 14.451,-3.137 19.503,-8.414 l -7.727,-7.49 C 8.718,42.819 4.894,44.807 0,44.807 c -5.733,0 -7.643,-2.444 -7.643,-4.815 0,-3.362 2.293,-4.438 10.78,-6.426 C 11.624,31.578 21.029,28.672 21.029,17.053 21.029,6.882 14.609,0 0,0"
         style="fill:#236093;fill-opacity:1;fill-rule:nonzero;stroke:none"
         transform="matrix(0.5879453,0,0,-0.5879453,152.60036,213.03964)"
         clip-path="none" />
      <path
         id="path53"
         d="m 584.08,266.546 h -10.706 v 53.531 h 10.706 z"
         style="fill:#236093;fill-opacity:1;fill-rule:nonzero;stroke:none"
         transform="matrix(0.5879453,0,0,-0.5879453,-165.4954,369.2606)"
         clip-path="none" />
      <path
         id="path55"
         d="m 0,0 c -8.944,0 -16.744,3.745 -20.799,9.709 l 7.722,6.883 c 3.75,-4.359 8.566,-6.117 13.691,-6.117 6.347,0 9.326,1.758 9.326,5.812 0,3.441 -1.83,4.968 -11.928,7.265 -9.862,2.293 -16.744,5.43 -16.744,15.984 0,9.709 8.561,15.673 19.115,15.673 8.335,0 14.451,-3.137 19.503,-8.414 l -7.727,-7.49 C 8.718,42.819 4.894,44.807 0,44.807 c -5.733,0 -7.643,-2.444 -7.643,-4.815 0,-3.362 2.293,-4.438 10.78,-6.426 C 11.624,31.578 21.029,28.672 21.029,17.053 21.029,6.882 14.609,0 0,0"
         style="fill:#236093;fill-opacity:1;fill-rule:nonzero;stroke:none"
         transform="matrix(0.5879453,0,0,-0.5879453,196.70279,213.03964)"
         clip-path="none" />
      <path
         id="path57"
         d="m 0,0 c -8.949,0 -16.749,3.745 -20.799,9.709 l 7.722,6.883 c 3.745,-4.359 8.566,-6.117 13.685,-6.117 6.348,0 9.332,1.758 9.332,5.812 0,3.441 -1.836,4.968 -11.928,7.265 -9.867,2.293 -16.749,5.43 -16.749,15.984 0,9.709 8.566,15.673 19.12,15.673 8.335,0 14.451,-3.137 19.498,-8.414 l -7.722,-7.49 C 8.718,42.819 4.894,44.807 0,44.807 c -5.739,0 -7.648,-2.444 -7.648,-4.815 0,-3.362 2.292,-4.438 10.785,-6.426 C 11.624,31.578 21.029,28.672 21.029,17.053 21.029,6.882 14.604,0 0,0"
         style="fill:#236093;fill-opacity:1;fill-rule:nonzero;stroke:none"
         transform="matrix(0.5879453,0,0,-0.5879453,225.29533,213.03964)"
         clip-path="none" />
      <path
         id="path59"
         d="m 707.717,266.546 h -10.706 v 53.531 h 10.706 z"
         style="fill:#236093;fill-opacity:1;fill-rule:nonzero;stroke:none"
         transform="matrix(0.5879453,0,0,-0.5879453,-165.4954,369.2606)"
         clip-path="none" />
      <path
         id="path61"
         d="M 0,0 H -12.311 V -13.764 H 0.152 c 4.968,0 7.648,2.292 7.648,6.961 C 7.8,-2.14 4.742,0 0,0 m -0.535,-24.166 h -11.776 v -18.963 h -10.706 v 53.531 h 23.4 c 10.092,0 18.427,-5.587 18.427,-16.98 0,-12.385 -8.256,-17.588 -19.345,-17.588"
         style="fill:#236093;fill-opacity:1;fill-rule:nonzero;stroke:none"
         transform="matrix(0.5879453,0,0,-0.5879453,272.22889,187.18886)"
         clip-path="none" />
      <path
         id="path63"
         d="M 0,0 H -12.311 V -13.764 H 0.152 c 4.973,0 7.648,2.292 7.648,6.961 C 7.8,-2.14 4.742,0 0,0 m -0.535,-24.166 h -11.776 v -18.963 h -10.706 v 53.531 h 23.4 c 10.092,0 18.427,-5.587 18.427,-16.98 0,-12.385 -8.256,-17.588 -19.345,-17.588"
         style="fill:#236093;fill-opacity:1;fill-rule:nonzero;stroke:none"
         transform="matrix(0.5879453,0,0,-0.5879453,302.34802,187.18886)"
         clip-path="none" />
      <path
         id="path65"
         d="m 835.409,266.546 h -10.701 v 53.531 h 10.701 z"
         style="fill:#236093;fill-opacity:1;fill-rule:nonzero;stroke:none"
         transform="matrix(0.5879453,0,0,-0.5879453,-165.4954,369.2606)"
         clip-path="none" />
    </g>
  </g>
</svg>
